# xmcd CD database file
#
# Track frame offsets:
#        150
#        13522
#        30920
#        45922
#        66625
#        93326
#        113319
#        136603
#        157167
#        173604
#
# Disc length: 2686 seconds
#
# Revision: 0
# Processed by: cddbd v1.5.2PL0 Copyright (c) Steve Scherf et al.
# Submitted via: CUERipper 2.1.6
#
DISCID=6b0a7c0a
DTITLE=Kevin “B.F.” Burt - This Is Me
DYEAR=1900
DGENRE=Blues
TTITLE0=Day Day
TTITLE1=Elenor Rigby
TTITLE2=Your Smile
TTITLE3=Ain't No Sunshine
TTITLE4=Stone Crazy
TTITLE5=I Don't Want to See No More
TTITLE6=Sitting On the Dock of the Bay
TTITLE7=Lean On Me
TTITLE8=Three Little Birds
TTITLE9=Thank You
EXTD=
EXTT0=
EXTT1=
EXTT2=
EXTT3=
EXTT4=
EXTT5=
EXTT6=
EXTT7=
EXTT8=
EXTT9=
PLAYORDER=
